<svg width="411" height="411" viewBox="0 0 411 411" fill="none" xmlns="http://www.w3.org/2000/svg">
<circle cx="205.5" cy="205.5" r="205.5" fill="black"/>
<path d="M140.803 303V121.182H212.536C226.267 121.182 237.985 123.638 247.692 128.55C257.457 133.404 264.885 140.299 269.975 149.236C275.124 158.114 277.699 168.56 277.699 180.575C277.699 192.648 275.095 203.036 269.886 211.736C264.678 220.377 257.132 227.006 247.248 231.622C237.423 236.239 225.527 238.547 211.559 238.547H163.53V207.652H205.344C212.683 207.652 218.78 206.646 223.633 204.634C228.486 202.621 232.096 199.603 234.464 195.578C236.89 191.554 238.104 186.552 238.104 180.575C238.104 174.538 236.89 169.448 234.464 165.305C232.096 161.162 228.456 158.025 223.544 155.894C218.691 153.704 212.565 152.609 205.167 152.609H179.244V303H140.803ZM238.991 220.259L284.18 303H241.744L197.532 220.259H238.991Z" fill="white"/>
</svg>
